<svg width="13" height="12" viewBox="0 0 13 12" fill="none" xmlns="http://www.w3.org/2000/svg">
<path fill-rule="evenodd" clip-rule="evenodd" d="M6.19391 11.9109C5.87901 12.0148 5.50428 12.0419 5.15328 11.9156L5.15406 11.914C4.43582 11.6768 3.9256 10.9122 4.08453 10.1578L4.08297 10.157L4.39391 8.24606L4.39703 8.18278C4.39357 8.12594 4.37214 8.0867 4.34703 8.05934C4.30949 8.01849 4.24648 7.98668 4.16578 7.98668H1.67125C1.10149 7.98668 0.599793 7.76517 0.293127 7.36559C-0.015377 6.96342 -0.0859299 6.43158 0.107971 5.90075L0.10719 5.89997L1.60485 1.52809L1.60563 1.52887C1.73352 1.07068 2.04498 0.692504 2.41578 0.431997C2.79456 0.165901 3.26324 4.86374e-05 3.72906 -3.33786e-05H6.09938C6.32352 -3.33786e-05 6.59321 0.0348969 6.84469 0.103872C7.07253 0.166376 7.33361 0.271082 7.5275 0.441373L8.98063 1.52184C9.04781 1.32795 9.15284 1.15499 9.31188 1.01403C9.62706 0.734735 10.0638 0.65856 10.5283 0.65856H11.1517C11.6162 0.65856 12.053 0.734768 12.3681 1.01403C12.6955 1.30421 12.7994 1.7285 12.7994 2.19684V8.06559C12.7994 8.53388 12.6955 8.95825 12.3681 9.2484C12.053 9.52753 11.6161 9.60309 11.1517 9.60309H10.5283C10.0639 9.60309 9.62704 9.52756 9.31188 9.2484C9.10861 9.06825 8.99168 8.83613 8.93219 8.57418L6.98844 11.3492C6.80333 11.6149 6.50506 11.8082 6.19391 11.9109ZM5.42438 11.1625C5.5723 11.2157 5.75913 11.2123 5.94313 11.1515C6.13026 11.0897 6.26777 10.9841 6.33219 10.8914L6.33297 10.8906L8.88063 7.25231V2.4445L7.04625 1.08043L7.02594 1.06559L7.00797 1.04762L6.95406 1.007C6.88707 0.963964 6.77949 0.915943 6.63297 0.875748C6.44789 0.824983 6.24942 0.799966 6.09938 0.799966H3.72906C3.44669 0.800052 3.13625 0.903859 2.87594 1.08669C2.61509 1.26995 2.43416 1.51097 2.36969 1.75856L2.36656 1.77262L2.3611 1.78747L0.864221 6.15856L0.861096 6.16872L0.82594 6.27965C0.762302 6.53185 0.818127 6.73533 0.928284 6.87887C1.05828 7.0481 1.30559 7.18668 1.67125 7.18668H4.16578C4.75817 7.18668 5.2874 7.6779 5.18531 8.36403L5.18453 8.3695L4.87281 10.2859L4.87047 10.2984L4.86735 10.3117C4.79564 10.6221 5.02144 11.0331 5.41032 11.1578L5.42438 11.1625ZM11.1517 8.80309C11.5604 8.80309 11.7474 8.72916 11.8377 8.64918C11.9156 8.58003 11.9994 8.43546 11.9994 8.06559V2.19684C11.9994 1.82681 11.9157 1.68161 11.8377 1.61247C11.7474 1.53254 11.5602 1.45856 11.1517 1.45856H10.5283C10.1197 1.45856 9.93263 1.53252 9.84235 1.61247C9.76434 1.68161 9.68063 1.82681 9.68063 2.19684V8.06559C9.68065 8.43539 9.76438 8.58002 9.84235 8.64918C9.9326 8.72916 10.1196 8.80309 10.5283 8.80309H11.1517Z" fill="#000000"/>
</svg>
