<svg width="13" height="12" viewBox="0 0 13 12" fill="none" xmlns="http://www.w3.org/2000/svg">
<path fill-rule="evenodd" clip-rule="evenodd" d="M6.19391 0.0890594C5.87901 -0.014752 5.50428 -0.0418515 5.15328 0.0844193L5.15406 0.0859895C4.43582 0.323218 3.9256 1.08784 4.08453 1.84216L4.08297 1.84294L4.39391 3.75394L4.39703 3.81722C4.39357 3.87406 4.37214 3.9133 4.34703 3.94066C4.30949 3.98151 4.24648 4.01332 4.16578 4.01332H1.67125C1.10149 4.01332 0.599793 4.23483 0.293127 4.63441C-0.015377 5.03658 -0.0859299 5.56842 0.107971 6.09925L0.10719 6.10003L1.60485 10.4719L1.60563 10.4711C1.73352 10.9293 2.04498 11.3075 2.41578 11.568C2.79456 11.8341 3.26324 11.9999 3.72906 12H6.09938C6.32352 12 6.59321 11.9651 6.84469 11.8961C7.07253 11.8336 7.33361 11.7289 7.5275 11.5586L8.98063 10.4782C9.04781 10.672 9.15284 10.845 9.31188 10.986C9.62706 11.2653 10.0638 11.3414 10.5283 11.3414H11.1517C11.6162 11.3414 12.053 11.2652 12.3681 10.986C12.6955 10.6958 12.7994 10.2715 12.7994 9.80316V3.93441C12.7994 3.46612 12.6955 3.04175 12.3681 2.7516C12.053 2.47247 11.6161 2.39691 11.1517 2.39691H10.5283C10.0639 2.39691 9.62704 2.47244 9.31188 2.7516C9.10861 2.93175 8.99168 3.16387 8.93219 3.42582L6.98844 0.650748C6.80333 0.385082 6.50506 0.191839 6.19391 0.0890594ZM5.42438 0.837469C5.5723 0.784279 5.75913 0.787693 5.94313 0.848521C6.13026 0.910349 6.26777 1.01592 6.33219 1.10863L6.33297 1.10941L8.88063 4.74769V9.5555L7.04625 10.9196L7.02594 10.9344L7.00797 10.9524L6.95406 10.993C6.88707 11.036 6.77949 11.0841 6.63297 11.1243C6.44789 11.175 6.24942 11.2 6.09938 11.2H3.72906C3.44669 11.1999 3.13625 11.0961 2.87594 10.9133C2.61509 10.73 2.43416 10.489 2.36969 10.2414L2.36656 10.2274L2.3611 10.2125L0.864221 5.84144L0.861096 5.83128L0.82594 5.72035C0.762302 5.46815 0.818127 5.26467 0.928284 5.12113C1.05828 4.9519 1.30559 4.81332 1.67125 4.81332H4.16578C4.75817 4.81332 5.2874 4.3221 5.18531 3.63597L5.18453 3.6305L4.87281 1.71406L4.87047 1.70156L4.86735 1.68825C4.79564 1.37794 5.02144 0.966925 5.41032 0.842156L5.42438 0.837469ZM11.1517 3.19691C11.5604 3.19691 11.7474 3.27084 11.8377 3.35082C11.9156 3.41997 11.9994 3.56454 11.9994 3.93441V9.80316C11.9994 10.1732 11.9157 10.3184 11.8377 10.3875C11.7474 10.4675 11.5602 10.5414 11.1517 10.5414H10.5283C10.1197 10.5414 9.93263 10.4675 9.84235 10.3875C9.76434 10.3184 9.68063 10.1732 9.68063 9.80316V3.93441C9.68065 3.56461 9.76438 3.41998 9.84235 3.35082C9.9326 3.27084 10.1196 3.19691 10.5283 3.19691H11.1517Z" fill="#000000"/>
</svg>
